<svg xmlns="http://www.w3.org/2000/svg" id="Layer_1" data-name="Layer 1" viewBox="0 0 383.17 383.28"><path d="M814.35,291.75c7,.95,14.08,1.67,21,2.91,44.47,7.91,81.63,29,111.38,62.89,26.69,30.42,42.35,66,46.15,106.24,5.38,57.05-11.25,107.25-50,149.58-29.52,32.27-66.24,52.24-109.45,59-55.28,8.67-105.64-4-149.68-38.71-40.39-31.81-63.94-73.75-71.4-124.65-.67-4.55-1.12-9.13-1.67-13.69v-24c.55-4.56,1-9.13,1.66-13.67,5.49-39,21.16-73.31,47.58-102.47,29.6-32.68,66.19-53.07,109.74-60.62,6.85-1.19,13.78-1.94,20.67-2.89Zm-12,19.21a172.41,172.41,0,0,0-.16,344.82c95.19.21,172.51-77,172.57-172.33A172.31,172.31,0,0,0,802.36,311Z" transform="translate(-610.75 -291.75)"/><path d="M744.83,483.38q0-34,0-68.07c0-8.05,4.3-13.45,11.55-14.7,4.25-.73,7.75,1,11.15,3.3q37.92,25.33,75.89,50.6c8.4,5.59,16.81,11.17,25.18,16.81,9.87,6.65,9.91,17.48,0,24.09Q817.81,529.35,767,563.25c-4.85,3.24-9.83,4.23-15.09,1.31-5.09-2.82-7.06-7.41-7.05-13.1Q744.87,517.42,744.83,483.38Zm19.55-58.56v117.1l87.81-58.55Z" transform="translate(-610.75 -291.75)"/></svg>
